<?xml version="1.0" encoding="utf-8"?>
<!-- Generator: Adobe Illustrator 22.1.0, SVG Export Plug-In . SVG Version: 6.00 Build 0)  -->
<svg version="1.1" id="Layer_1" xmlns="http://www.w3.org/2000/svg" xmlns:xlink="http://www.w3.org/1999/xlink" x="0px" y="0px"
	 viewBox="0 0 511 511" style="enable-background:new 0 0 511 511;" xml:space="preserve">
<style type="text/css">
	.st0{fill:#F7F9EC;}
</style>
<g transform="translate(0.000000,511.000000) scale(0.100000,-0.100000)">
	<path class="st0" d="M2255,5098c-281-31-574-120-845-254c-502-249-902-653-1151-1159c-114-234-183-446-230-712
		c-27-151-37-515-19-688c49-478,250-963,557-1345c87-109,264-286,373-373c381-307,855-505,1332-556c125-14,441-14,566,0
		c477,51,949,248,1332,555c109,88,286,265,374,374c308,385,502,850,556,1335c13,119,13,441-1,563c-52,480-247,947-555,1332
		c-86,108-264,285-374,373c-381,307-855,505-1332,556C2723,5112,2369,5111,2255,5098z M2791,4870c335-34,708-161,984-335
		c159-100,277-195,421-339c271-271,448-554,564-904c192-575,152-1206-108-1744c-119-244-253-431-456-634c-271-271-554-448-904-564
		c-734-244-1524-114-2142,353c-194,147-406,375-541,580c-501,762-506,1760-11,2527c244,380,616,697,1023,875c205,90,471,162,680,184
		C2422,4881,2671,4882,2791,4870z"/>
	<path class="st0" d="M3478,3210c-77-14-159-40-217-70c-325-164-476-535-355-872c82-225,274-397,509-454c93-23,267-23,360,0
		c200,48,382,191,473,372c51,103,51,104-6,104c-49,0-51-1-76-45c-41-69-123-144-192-177c-156-73-379-31-513,97
		c-94,89-148,209-158,352l-6,82l471,3l470,3l26,24c22,21,26,33,26,81c0,182-230,406-492,480C3716,3213,3551,3224,3478,3210z
		 M3717,3089c79-38,132-127,158-264c8-42,15-83,15-91c0-12-48-14-295-14h-294l5,33c20,112,62,211,116,273
		C3492,3105,3624,3134,3717,3089z"/>
	<path class="st0" d="M690,3156c0-32,2-34,42-40c29-5,51-17,71-39s107-214,278-617c259-609,269-630,334-646c37-9,91,4,120,29
		c18,15,73,135,181,397c86,206,159,379,163,383s79-162,167-369c107-252,168-386,187-405c50-50,134-50,185,0c37,38,522,1210,522,1262
		c0,24-7,42-23,57c-22,21-31,22-245,22h-222v-35c0-31,3-35,26-35c79,0,180-68,215-145c37-81,29-124-77-378c-53-128-97-233-99-235
		c-1-1-68,154-149,344c-131,306-147,350-137,371c6,14,25,30,41,36c25,9,30,17,30,44v33h-365h-365v-34c0-31,3-34,39-40
		c60-9,91-47,151-186c29-69,53-130,53-136c0-12-175-435-179-432c-13,15-287,679-286,697c0,26,34,61,58,61c9,0,14,12,14,35v35h-365
		H690V3156z"/>
</g>
</svg>
